<svg id="visual" viewBox="0 0 960 540" width="960" height="540" xmlns="http://www.w3.org/2000/svg" xmlns:xlink="http://www.w3.org/1999/xlink" version="1.1"><path d="M0 39L69 39L137 39L206 39L274 39L343 39L411 39L480 39L549 39L617 39L686 39L754 39L823 39L891 39L960 39L960 0L891 0L823 0L754 0L686 0L617 0L549 0L480 0L411 0L343 0L274 0L206 0L137 0L69 0L0 0Z" fill="#00172e"></path><path d="M0 71L69 71L137 71L206 71L274 71L343 71L411 71L480 71L549 71L617 71L686 71L754 71L823 71L891 71L960 71L960 37L891 37L823 37L754 37L686 37L617 37L549 37L480 37L411 37L343 37L274 37L206 37L137 37L69 37L0 37Z" fill="#00263f"></path><path d="M0 98L69 98L137 98L206 98L274 98L343 98L411 98L480 98L549 98L617 98L686 98L754 98L823 98L891 98L960 98L960 69L891 69L823 69L754 69L686 69L617 69L549 69L480 69L411 69L343 69L274 69L206 69L137 69L69 69L0 69Z" fill="#003750"></path><path d="M0 125L69 125L137 125L206 125L274 125L343 125L411 125L480 125L549 125L617 125L686 125L754 125L823 125L891 125L960 125L960 96L891 96L823 96L754 96L686 96L617 96L549 96L480 96L411 96L343 96L274 96L206 96L137 96L69 96L0 96Z" fill="#00485f"></path><path d="M0 249L69 233L137 244L206 233L274 239L343 244L411 239L480 244L549 249L617 239L686 249L754 249L823 244L891 239L960 244L960 123L891 123L823 123L754 123L686 123L617 123L549 123L480 123L411 123L343 123L274 123L206 123L137 123L69 123L0 123Z" fill="#005a6e"></path><path d="M0 314L69 303L137 320L206 298L274 309L343 314L411 303L480 320L549 320L617 303L686 325L754 314L823 309L891 309L960 309L960 242L891 237L823 242L754 247L686 247L617 237L549 247L480 242L411 237L343 242L274 237L206 231L137 242L69 231L0 247Z" fill="#006c7c"></path><path d="M0 341L69 336L137 347L206 325L274 341L343 341L411 330L480 347L549 347L617 330L686 357L754 347L823 341L891 336L960 341L960 307L891 307L823 307L754 312L686 323L617 301L549 318L480 318L411 301L343 312L274 307L206 296L137 318L69 301L0 312Z" fill="#007f81"></path><path d="M0 444L69 449L137 449L206 444L274 449L343 444L411 449L480 449L549 449L617 449L686 455L754 455L823 449L891 444L960 449L960 339L891 334L823 339L754 345L686 355L617 328L549 345L480 345L411 328L343 339L274 339L206 323L137 345L69 334L0 339Z" fill="#009179"></path><path d="M0 487L69 492L137 492L206 487L274 487L343 487L411 492L480 492L549 492L617 492L686 492L754 492L823 487L891 487L960 487L960 447L891 442L823 447L754 453L686 453L617 447L549 447L480 447L411 447L343 442L274 447L206 442L137 447L69 447L0 442Z" fill="#00a163"></path><path d="M0 541L69 541L137 541L206 541L274 541L343 541L411 541L480 541L549 541L617 541L686 541L754 541L823 541L891 541L960 541L960 485L891 485L823 485L754 490L686 490L617 490L549 490L480 490L411 490L343 485L274 485L206 485L137 490L69 490L0 485Z" fill="#00af40"></path></svg>